<svg width="20" height="20" viewBox="0 0 20 20" fill="none" xmlns="http://www.w3.org/2000/svg">
<path d="M18.7509 10.1943C18.7509 9.47489 18.6913 8.94989 18.5624 8.40546H10.1794V11.6526H15.1C15.0009 12.4596 14.4652 13.6749 13.2747 14.4915L13.258 14.6002L15.9085 16.6125L16.0921 16.6305C17.7786 15.104 18.7509 12.8582 18.7509 10.1943" fill="#0C57D3"/>
<path d="M10.1789 18.75C12.5896 18.75 14.6134 17.9722 16.0916 16.6305L13.2741 14.4916C12.5202 15.0068 11.5082 15.3666 10.1789 15.3666C7.81782 15.3666 5.81388 13.8402 5.09953 11.7305L4.99482 11.7392L2.23877 13.8295L2.20273 13.9277C3.67096 16.786 6.68683 18.75 10.1789 18.75Z" fill="#298341"/>
<path d="M5.10005 11.7305C4.91156 11.1861 4.80248 10.6027 4.80248 9.99998C4.80248 9.39716 4.91156 8.81385 5.09013 8.26941L5.08514 8.15346L2.29455 6.0296L2.20324 6.07216C1.59811 7.25829 1.25089 8.59026 1.25089 9.99998C1.25089 11.4097 1.59811 12.7416 2.20324 13.9277L5.10005 11.7305" fill="#946F02"/>
<path d="M10.179 4.63331C11.8555 4.63331 12.9864 5.34303 13.6313 5.93612L16.1512 3.525C14.6036 2.11528 12.5896 1.25 10.179 1.25C6.68685 1.25 3.67097 3.21387 2.20273 6.07218L5.08963 8.26943C5.8139 6.15972 7.81785 4.63331 10.179 4.63331" fill="#E12616"/>
</svg>
