<svg width="20" height="20" viewBox="0 0 20 20" fill="none" xmlns="http://www.w3.org/2000/svg">
<path d="M13.9775 0.0100088C13.935 -0.0374912 12.4037 0.0287588 11.0712 1.47501C9.73875 2.92001 9.94375 4.57751 9.97375 4.62001C10.0037 4.66251 11.8737 4.72876 13.0675 3.04751C14.2612 1.36626 14.02 0.0587588 13.9775 0.0100088ZM18.12 14.6763C18.06 14.5563 15.2137 13.1338 15.4787 10.3988C15.7437 7.66251 17.5725 6.91251 17.6012 6.83126C17.63 6.75001 16.855 5.84376 16.0337 5.38501C15.4308 5.06157 14.7634 4.87627 14.08 4.84251C13.945 4.83876 13.4762 4.72376 12.5125 4.98751C11.8775 5.16126 10.4462 5.72376 10.0525 5.74626C9.6575 5.76876 8.4825 5.09376 7.21875 4.91501C6.41 4.75876 5.5525 5.07876 4.93875 5.32501C4.32625 5.57001 3.16125 6.26751 2.34625 8.12126C1.53125 9.97376 1.9575 12.9088 2.2625 13.8213C2.5675 14.7325 3.04375 16.2263 3.85375 17.3163C4.57375 18.5463 5.52875 19.4 5.9275 19.69C6.32625 19.98 7.45125 20.1725 8.23125 19.7738C8.85875 19.3888 9.99125 19.1675 10.4387 19.1838C10.885 19.2 11.765 19.3763 12.6662 19.8575C13.38 20.1038 14.055 20.0013 14.7312 19.7263C15.4075 19.45 16.3862 18.4025 17.5287 16.2788C17.9625 15.2913 18.16 14.7575 18.12 14.6763Z" fill="#212529"/>
<path d="M13.9775 0.0100088C13.935 -0.0374912 12.4037 0.0287588 11.0712 1.47501C9.73875 2.92001 9.94375 4.57751 9.97375 4.62001C10.0037 4.66251 11.8737 4.72876 13.0675 3.04751C14.2612 1.36626 14.02 0.0587588 13.9775 0.0100088ZM18.12 14.6763C18.06 14.5563 15.2137 13.1338 15.4787 10.3988C15.7437 7.66251 17.5725 6.91251 17.6012 6.83126C17.63 6.75001 16.855 5.84376 16.0337 5.38501C15.4308 5.06157 14.7634 4.87627 14.08 4.84251C13.945 4.83876 13.4762 4.72376 12.5125 4.98751C11.8775 5.16126 10.4462 5.72376 10.0525 5.74626C9.6575 5.76876 8.4825 5.09376 7.21875 4.91501C6.41 4.75876 5.5525 5.07876 4.93875 5.32501C4.32625 5.57001 3.16125 6.26751 2.34625 8.12126C1.53125 9.97376 1.9575 12.9088 2.2625 13.8213C2.5675 14.7325 3.04375 16.2263 3.85375 17.3163C4.57375 18.5463 5.52875 19.4 5.9275 19.69C6.32625 19.98 7.45125 20.1725 8.23125 19.7738C8.85875 19.3888 9.99125 19.1675 10.4387 19.1838C10.885 19.2 11.765 19.3763 12.6662 19.8575C13.38 20.1038 14.055 20.0013 14.7312 19.7263C15.4075 19.45 16.3862 18.4025 17.5287 16.2788C17.9625 15.2913 18.16 14.7575 18.12 14.6763Z" fill="#212529"/>
</svg>
